:SAMPLES-PER-SECOND 30
:FULLY-SPECIFIED
:DEGREES
945
root  -23.1617 37.94 -5.47686 -66.5713 -83.1928 56.7004
RightUpLeg  -3.54614 1.79098 -12.2215
RightLeg  68.638 2.76528 7.07029
RightFoot  3.50297 -1.42141 11.0765
RightToes  2.32829e-010 0 -3.6325e-017
Spine  12.9886 0.693038 -3.66847
Spine1  12.2956 1.09693 -6.17817
HEad  10.7871 0.48878 -1.62725
LeftShoulder1  0.194032 2.96474 -29.8378
LeftArm  0.386251 8.12846 -43.8316
LeftForeArm  22.8959 -14.0057 -7.14025
LeftHand  -0.0236954 4.59907 -0.152287
RightShoulder  -0.241821 -4.23016 25.8298
RightArm  19.3017 0.55256 52.7389
RightForeArm  7.52317 14.1498 6.8274
RightHand  -0.356444 3.03902 -5.14289
LeftUpLeg  -12.9527 8.98469 -12.4293
LeftLeg  26.7504 5.35956 3.29728
LeftFoot  -4.85664 -0.637151 11.7199
LeftToes  -3.54706e-010 1.16038e-010 5.28031e-012
946
root  -24.2324 38.2258 -5.30957 -58.4729 -82.9622 48.4504
RightUpLeg  -8.45904 2.81654 -11.7682
RightLeg  69.0449 2.41505 6.24828
RightFoot  2.58478 -1.30297 10.7753
RightToes  2.32829e-010 0 -3.6325e-017
Spine  13.175 0.260146 -4.26979
Spine1  12.3804 0.140078 -4.69546
HEad  11.2377 0.101826 -1.64686
LeftShoulder1  0.175906 3.01387 -29.7845
LeftArm  5.58171 6.31288 -44.3394
LeftForeArm  19.8164 -17.8189 -5.87094
LeftHand  -0.0288228 5.03855 0.155659
RightShoulder  -0.201689 -4.12044 25.0874
RightArm  19.7817 0.270609 52.9507
RightForeArm  4.62043 17.2043 5.68374
RightHand  -0.32678 2.91074 -4.79517
LeftUpLeg  -10.2646 8.54642 -12.0229
LeftLeg  25.6824 5.11098 3.01673
LeftFoot  -5.98736 -0.505579 11.5467
LeftToes  -3.54706e-010 1.16038e-010 5.28031e-012
947
root  -25.2899 38.5227 -5.13989 -49.9789 -82.3829 39.8387
RightUpLeg  -12.3851 3.6477 -11.3193
RightLeg  65.9892 2.20902 4.83489
RightFoot  1.57319 -1.02177 9.09967
RightToes  2.32829e-010 0 -3.6325e-017
Spine  13.5399 -0.297297 -4.62324
Spine1  11.8219 -0.750163 -3.69664
HEad  11.5165 -0.182914 -1.39196
LeftShoulder1  0.17307 3.01289 -29.1198
LeftArm  8.28695 5.51245 -44.9229
LeftForeArm  17.1803 -22.114 -4.29893
LeftHand  -0.0290173 3.89697 0.743882
RightShoulder  -0.219301 -4.17354 25.2193
RightArm  20.7512 0.326953 52.2995
RightForeArm  1.63403 19.8041 5.09105
RightHand  -0.326694 2.75107 -4.87842
LeftUpLeg  -7.2448 7.89829 -11.5735
LeftLeg  23.8663 4.77756 2.41242
LeftFoot  -6.8162 -0.413017 11.4549
LeftToes  -3.54706e-010 1.16038e-010 5.28031e-012
948
root  -26.368 38.7899 -4.96993 -42.4816 -81.8216 32.1525
RightUpLeg  -14.9053 4.32114 -10.7722
RightLeg  59.6296 1.70917 2.71768
RightFoot  -0.0537821 -0.850797 8.6105
RightToes  2.32829e-010 0 -3.6325e-017
Spine  13.6913 -0.745363 -4.63364
Spine1  11.4306 -1.44072 -2.61495
HEad  11.9272 -0.53211 -1.16935
LeftShoulder1  0.16397 3.03762 -29.0192
LeftArm  6.46757 4.47956 -44.6852
LeftForeArm  18.557 -25.6773 -4.4627
LeftHand  -0.0294656 2.9567 0.658139
RightShoulder  -0.217709 -4.17144 25.0679
RightArm  20.2333 0.272219 51.8787
RightForeArm  1.14185 21.791 4.8418
RightHand  -0.358574 3.53951 -4.90363
LeftUpLeg  -4.13152 7.10694 -10.8341
LeftLeg  22.0456 4.72517 1.67391
LeftFoot  -7.72741 -0.313357 11.3703
LeftToes  -3.54706e-010 1.16038e-010 5.28031e-012
949
root  -27.4297 38.9942 -4.80736 -36.9591 -81.1724 26.5552
RightUpLeg  -16.3213 4.61036 -10.327
RightLeg  50.4901 0.950107 0.878182
RightFoot  -1.22051 -0.803358 8.95497
RightToes  2.32829e-010 0 -3.6325e-017
Spine  13.7914 -1.05777 -4.75136
Spine1  10.9368 -1.98547 -1.43625
HEad  12.0691 -1.48453 -1.24947
LeftShoulder1  0.210847 2.8963 -28.6567
LeftArm  3.86231 4.07216 -44.3082
LeftForeArm  20.5741 -29.7015 -5.32088
LeftHand  -0.0483128 3.16172 1.65722
RightShoulder  -0.201018 -4.1229 24.82
RightArm  19.6862 0.357039 51.5217
RightForeArm  1.37817 23.159 4.89987
RightHand  -0.417579 4.21479 -5.32115
LeftUpLeg  -1.21054 6.28662 -10.2589
LeftLeg  20.2681 4.71592 1.08474
LeftFoot  -8.74609 -0.203435 11.2749
LeftToes  -3.54706e-010 1.16038e-010 5.28031e-012
950
root  -28.4917 39.126 -4.64003 -32.2604 -80.1862 22.0089
RightUpLeg  -16.7073 3.85343 -10.1328
RightLeg  39.2125 0.600106 0.248471
RightFoot  -1.03868 -0.770494 8.45181
RightToes  2.32829e-010 0 -3.6325e-017
Spine  13.5539 -1.48825 -4.1757
Spine1  10.6937 -2.25638 -1.27287
HEad  11.9041 -2.90052 -1.56803
LeftShoulder1  0.328938 2.54103 -27.9934
LeftArm  2.29087 3.44249 -44.0448
LeftForeArm  20.225 -32.9429 -6.13121
LeftHand  -0.0790603 2.87981 3.12526
RightShoulder  -0.250224 -4.27137 25.2313
RightArm  19.5454 0.731807 50.8103
RightForeArm  1.76146 23.9117 5.01844
RightHand  -0.403302 3.90345 -5.29953
LeftUpLeg  1.30424 5.19356 -10.1367
LeftLeg  18.7088 4.66887 0.905174
LeftFoot  -9.82471 -0.0895212 11.2092
LeftToes  -3.54706e-010 1.16038e-010 5.28031e-012
951
root  -29.5989 39.2213 -4.46847 -32.1251 -79.6863 22.0427
RightUpLeg  -16.0565 2.69975 -9.96376
RightLeg  26.4682 0.827874 0.245477
RightFoot  -0.467072 -0.823147 8.59908
RightToes  2.32829e-010 0 -3.6325e-017
Spine  13.065 -1.46041 -4.27347
Spine1  10.6207 -2.31646 -0.33819
HEad  12.1288 -4.47753 -2.49102
LeftShoulder1  0.306091 2.613 -28.218
LeftArm  0.836686 2.54947 -43.3969
LeftForeArm  21.6182 -35.3522 -6.67647
LeftHand  -0.0980198 1.67971 2.81306
RightShoulder  -0.199283 -4.11798 24.8152
RightArm  19.4492 0.81539 50.6679
RightForeArm  1.88616 23.8692 5.00915
RightHand  -0.411997 3.9077 -5.40667
LeftUpLeg  4.07634 4.90278 -10.1787
LeftLeg  16.6962 4.64471 0.503057
LeftFoot  -10.8484 0.017596 11.0183
LeftToes  -3.54706e-010 1.16038e-010 5.28031e-012
952
root  -30.7237 39.2563 -4.27416 -33.1517 -79.5072 22.9071
RightUpLeg  -14.511 -1.47536 -8.9205
RightLeg  14.1577 2.77358 0.412412
RightFoot  -0.586327 -0.843089 8.90793
RightToes  2.32829e-010 0 -3.6325e-017
Spine  12.5485 -1.40472 -3.85579
Spine1  11.0646 -2.18765 0.0152762
HEad  12.6972 -6.05847 -4.05115
LeftShoulder1  0.28386 2.67595 -28.1456
LeftArm  -0.195375 1.351 -43.0992
LeftForeArm  21.6533 -36.4673 -6.97906
LeftHand  -0.128744 1.54667 3.69646
RightShoulder  -0.178663 -4.05501 24.6333
RightArm  20.0446 1.27622 50.7516
RightForeArm  1.25812 22.7685 4.86812
RightHand  -0.390109 3.87627 -5.15705
LeftUpLeg  7.19353 5.05304 -10.1583
LeftLeg  14.7869 4.4614 0.124387
LeftFoot  -12.0176 0.135817 10.644
LeftToes  -3.54706e-010 1.16038e-010 5.28031e-012
953
root  -31.8931 39.2108 -4.08955 -35.0554 -79.2984 24.5856
RightUpLeg  -12.9489 -8.80464 -7.20441
RightLeg  4.70977 5.81198 0.78837
RightFoot  -0.337982 -0.996042 10.232
RightToes  2.32829e-010 0 -3.6325e-017
Spine  11.7391 -1.3099 -3.49802
Spine1  11.9708 -2.03753 0.18107
HEad  13.5913 -8.51681 -6.37321
LeftShoulder1  0.284011 2.66996 -27.9149
LeftArm  -1.03902 0.566653 -43.0262
LeftForeArm  22.2375 -36.7557 -7.0246
LeftHand  -0.156482 1.23585 4.25304
RightShoulder  -0.187192 -4.07925 24.8022
RightArm  20.4897 1.93749 50.7436
RightForeArm  1.32097 21.1984 4.88377
RightHand  -0.361346 2.90956 -5.27676
LeftUpLeg  10.2037 5.32672 -10.2928
LeftLeg  13.4127 4.15536 -0.122934
LeftFoot  -13.3173 0.257987 10.3152
LeftToes  -3.54706e-010 1.16038e-010 5.28031e-012
954
root  -33.0982 39.0588 -3.91787 -39.2894 -79.685 28.475
RightUpLeg  -11.8102 -9.07735 -6.75092
RightLeg  0.088046 0.930412 1.56155
RightFoot  1.07858 -1.24925 11.5369
RightToes  2.32829e-010 0 -3.6325e-017
Spine  11.3029 -0.971734 -3.29505
Spine1  12.64 -1.72045 0.422528
HEad  15.0332 -10.9078 -9.27114
LeftShoulder1  0.230801 2.8339 -28.3091
LeftArm  -1.83939 0.365671 -42.4136
LeftForeArm  22.2544 -36.9374 -7.07426
LeftHand  -0.166794 0.929729 4.27033
RightShoulder  -0.197011 -4.1074 24.9879
RightArm  20.6087 2.84907 50.7175
RightForeArm  1.21412 18.8106 5.34468
RightHand  -0.373067 3.30583 -5.20442
LeftUpLeg  12.9636 5.72849 -10.5484
LeftLeg  12.8542 4.71756 -0.0909307
LeftFoot  -15.1968 0.422341 9.78559
LeftToes  -3.54706e-010 1.16038e-010 5.28031e-012
955
root  -34.3115 38.8604 -3.7314 -41.4225 -80.0792 30.5448
RightUpLeg  -12.1528 -8.91911 -5.65536
RightLeg  1.72324 -2.45794 1.807
RightFoot  1.04712 -1.03878 9.56103
RightToes  2.32829e-010 0 -3.6325e-017
Spine  11.0158 -1.02951 -2.26811
Spine1  12.7827 -1.58329 0.0611297
HEad  16.3798 -13.2977 -12.1297
LeftShoulder1  0.214667 2.88799 -28.7161
LeftArm  -2.39474 0.725715 -41.7136
LeftForeArm  22.302 -36.0726 -6.83221
LeftHand  -0.15296 1.01567 3.96519
RightShoulder  -0.165538 -4.00438 25.1297
RightArm  19.4308 3.28303 50.8089
RightForeArm  2.02698 16.2583 6.07529
RightHand  -0.43771 3.75057 -5.79996
LeftUpLeg  14.943 6.07269 -10.5873
LeftLeg  13.2398 5.03626 0.167745
LeftFoot  -17.1617 0.581737 9.39698
LeftToes  -3.54706e-010 1.16038e-010 5.28031e-012
956
root  -35.5639 38.6052 -3.57662 -38.7236 -80.1778 28.0438
RightUpLeg  -12.8679 -10.4813 -4.00134
RightLeg  6.35015 -2.83797 1.88076
RightFoot  1.57045 -0.867016 8.0196
RightToes  2.32829e-010 0 -3.6325e-017
Spine  10.4788 -1.38077 -1.39527
Spine1  13.1965 -1.9864 0.416515
HEad  16.745 -14.3741 -13.9706
LeftShoulder1  0.226627 2.85572 -28.8244
LeftArm  -2.45481 1.55159 -41.5814
LeftForeArm  20.8442 -34.5456 -6.51008
LeftHand  -0.119249 2.04421 3.83211
RightShoulder  -0.21206 -4.14904 25.255
RightArm  17.5951 3.14054 50.8453
RightForeArm  4.42396 14.7187 6.34576
RightHand  -0.337761 3.16689 -4.82156
LeftUpLeg  16.033 7.10861 -9.62743
LeftLeg  15.2054 3.81819 0.374283
LeftFoot  -19.6821 0.761539 8.79463
LeftToes  -3.54706e-010 1.16038e-010 5.28031e-012
957
root  -36.7632 38.5514 -3.43131 -30.7318 -80.3182 20.3982
RightUpLeg  -14.4721 -11.8731 -1.44165
RightLeg  11.5779 -0.72514 1.33207
RightFoot  5.12296 0.258913 -1.52601
RightToes  2.32829e-010 0 -3.6325e-017
Spine  10.234 -1.93536 0.593901
Spine1  13.6259 -2.60482 1.31964
HEad  17.5374 -14.332 -15.1413
LeftShoulder1  0.208025 2.91582 -29.302
LeftArm  -1.11124 2.55657 -41.1715
LeftForeArm  19.2892 -32.1168 -5.98007
LeftHand  -0.128067 1.99857 4.11586
RightShoulder  -0.297124 -4.39864 25.9957
RightArm  16.6783 2.49095 50.0302
RightForeArm  4.46326 13.9098 6.49311
RightHand  -0.372152 3.19497 -5.26224
LeftUpLeg  17.1682 7.85803 -7.76103
LeftLeg  16.3502 2.01046 0.552832
LeftFoot  -20.7692 0.740986 7.46283
LeftToes  -3.54706e-010 1.16038e-010 5.28031e-012
958
root  -37.9768 38.5012 -3.26902 -21.0669 -80.7932 10.4366
RightUpLeg  -15.1946 -11.7116 0.731257
RightLeg  16.153 -0.668757 0.388679
RightFoot  6.90578 0.984853 -5.89175
RightToes  2.32829e-010 0 -3.6325e-017
Spine  11.1833 -2.41816 3.58749
Spine1  13.6565 -2.85467 1.58571
HEad  17.8126 -14.2588 -15.8721
LeftShoulder1  0.132983 3.13892 -30.2995
LeftArm  2.89151 2.40208 -40.5179
LeftForeArm  16.3205 -28.4852 -5.24785
LeftHand  -0.10177 2.63339 3.7668
RightShoulder  -0.335422 -4.50049 26.5443
RightArm  15.91 1.63948 48.9498
RightForeArm  4.27598 13.3343 6.55105
RightHand  -0.330003 3.05389 -4.76396
LeftUpLeg  17.5393 8.02751 -5.44398
LeftLeg  20.3093 0.690726 0.665959
LeftFoot  -21.3276 0.511732 4.46316
LeftToes  -3.54706e-010 1.16038e-010 5.28031e-012
959
root  -39.1488 38.3157 -3.11955 -11.9652 -82.0056 1.47864
RightUpLeg  -16.3586 -10.5485 2.73263
RightLeg  21.4732 -0.76778 -0.627039
RightFoot  3.35716 0.77072 -5.79661
RightToes  2.32829e-010 0 -3.6325e-017
Spine  12.2657 -2.75371 7.14158
Spine1  13.3588 -2.27893 0.351133
HEad  17.3216 -13.5953 -15.2556
LeftShoulder1  0.108547 3.20889 -30.6616
LeftArm  5.9094 2.54781 -41.0724
LeftForeArm  14.8377 -24.0955 -4.54559
LeftHand  -0.0562526 3.26475 2.24883
RightShoulder  -0.31332 -4.42522 26.7916
RightArm  15.0105 1.24354 48.5979
RightForeArm  4.72085 11.8582 6.88974
RightHand  -0.370952 3.46474 -5.11243
LeftUpLeg  14.9453 8.80568 -2.89808
LeftLeg  29.0943 -0.818381 -0.201985
LeftFoot  -20.7821 0.103759 -0.345776
LeftToes  -3.54706e-010 1.16038e-010 5.28031e-012
